<svg xmlns="http://www.w3.org/2000/svg" height="20" viewBox="0 0 20 20" width="20" focusable="false" aria-hidden="true" style="pointer-events: none; display: inherit; width: 100%; height: 100%;"><path d="M8.333 12.208v-4.417L12.5 10zm6.475 -3.608 -1 -0.417L15 7.55c1.533 -0.8 2.108 -2.692 1.3 -4.217s-2.7 -2.108 -4.225 -1.3L5 5.783a3.117 3.117 0 0 0 -1.667 2.908c0.058 1.183 0.775 2.225 1.85 2.708 0.025 0.008 1 0.417 1 0.417L5 12.442a3.126 3.126 0 0 0 2.925 5.525l7.083 -3.75A3.117 3.117 0 0 0 16.667 11.308a3.133 3.133 0 0 0 -1.858 -2.708m-0.192 4.883 -7.083 3.75c-1.117 0.592 -2.508 0.167 -3.1 -0.95s-0.167 -2.508 0.95 -3.1l1.7 -0.9v-1.008l-0.575 -0.233 -0.925 -0.383A2.292 2.292 0 0 1 4.167 8.65c-0.042 -0.883 0.433 -1.717 1.217 -2.133l7.083 -3.75c1.117 -0.592 2.508 -0.167 3.1 0.95s0.167 2.508 -0.95 3.1L12.917 7.717v1.008l1.5 0.617c0.825 0.342 1.375 1.125 1.417 2.008s-0.433 1.717 -1.217 2.133"/></svg>