<svg fill="#000000" width="30px" height="30px" viewBox="0 0 1.35 1.35" version="1.1" preserveAspectRatio="xMidYMid meet" xmlns="http://www.w3.org/2000/svg" xmlns:xlink="http://www.w3.org/1999/xlink"><title>notification-line</title><path class="clr-i-outline clr-i-outline-path-1" d="M1.219 1.044A0.54 0.54 0 0 1 1.125 0.934a0.472 0.472 0 0 1 -0.051 -0.18v-0.185A0.405 0.405 0 0 0 0.72 0.165V0.117a0.05 0.05 0 1 0 -0.1 0v0.049a0.405 0.405 0 0 0 -0.35 0.402v0.185a0.472 0.472 0 0 1 -0.051 0.18 0.54 0.54 0 0 1 -0.093 0.11 0.037 0.037 0 0 0 -0.013 0.028v0.051a0.037 0.037 0 0 0 0.037 0.037h1.042a0.037 0.037 0 0 0 0.037 -0.037v-0.051a0.037 0.037 0 0 0 -0.013 -0.028M0.192 1.085a0.607 0.607 0 0 0 0.091 -0.112 0.532 0.532 0 0 0 0.062 -0.219v-0.185a0.328 0.328 0 1 1 0.655 0v0.185a0.532 0.532 0 0 0 0.062 0.219 0.607 0.607 0 0 0 0.091 0.112Z"/><path class="clr-i-outline clr-i-outline-path-2" d="M0.675 1.286A0.1 0.1 0 0 0 0.772 1.2h-0.197A0.1 0.1 0 0 0 0.675 1.286"/><path x="0" y="0" width="36" height="36" fill-opacity="0" d="M0 0H1.35V1.35H0V0z"/></svg>